PathFileType	4	(X/Y/Z)	s01c0001.trc
DataRate	CameraRate	NumFrames	NumMarkers	Units	OrigDataRate	OrigDataStartFrame	OrigNumFrames
200	200	6	49	mm	200	500	2000
Frame#	Time	racr			lacr			c7			jug			rlel			rdr			llel			ldr			s2			lic			ric			lasi			rasi			rpsi			lpsi			rgt			lgt			rth1			rth2			rth3			rth4			rlfc			rmfc			rsh1			rsh2			rsh3			rsh4			rlmal			rmmal			rcal			rtoe			rmt5			rmt1			lth1			lth2			lth4			lth3			llfc			lmfc			lsh1			lsh2			lsh3			lsh4			llmal			lmmal			lcal			ltoe			lmt1			lmt5			
		X1	Y1	Z1	X2	Y2	Z2	X3	Y3	Z3	X4	Y4	Z4	X5	Y5	Z5	X6	Y6	Z6	X7	Y7	Z7	X8	Y8	Z8	X9	Y9	Z9	X10	Y10	Z10	X11	Y11	Z11	X12	Y12	Z12	X13	Y13	Z13	X14	Y14	Z14	X15	Y15	Z15	X16	Y16	Z16	X17	Y17	Z17	X18	Y18	Z18	X19	Y19	Z19	X20	Y20	Z20	X21	Y21	Z21	X22	Y22	Z22	X23	Y23	Z23	X24	Y24	Z24	X25	Y25	Z25	X26	Y26	Z26	X27	Y27	Z27	X28	Y28	Z28	X29	Y29	Z29	X30	Y30	Z30	X31	Y31	Z31	X32	Y32	Z32	X33	Y33	Z33	X34	Y34	Z34	X35	Y35	Z35	X36	Y36	Z36	X37	Y37	Z37	X38	Y38	Z38	X39	Y39	Z39	X40	Y40	Z40	X41	Y41	Z41	X42	Y42	Z42	X43	Y43	Z43	X44	Y44	Z44	X45	Y45	Z45	X46	Y46	Z46	X47	Y47	Z47	X48	Y48	Z48	X49	Y49	Z49	
500	2.5000	496.228241	1501.382202	-347.752563	306.847717	1482.346802	-688.395752	378.549957	1530.507202	-496.997925	509.740601	1459.705322	-566.138977	556.447571	1253.852661	-183.230331	715.918823	1058.192017	-72.307571	210.434158	1209.319946	-782.521057	216.449219	1001.996704	-951.685669	341.280792	1020.144653	-461.285980	368.433807	1089.563477	-679.079468	545.261841	1061.898926	-394.262787	420.796265	1025.656738	-681.544861	573.915894	1014.553955	-446.867157	383.638123	1050.666382	-423.899414	327.953430	1053.978149	-513.747559	516.802551	928.298584	-361.872192	337.339569	922.596008	-683.876587	538.020325	808.977234	-351.422180	543.590881	726.898071	-361.072815	536.944519	637.342712	-376.119751	581.451294	730.549438	-400.603607	506.471771	517.345581	-388.685089	446.213226	493.077972	-477.436707	491.759735	401.802490	-339.543396	486.197327	317.574280	-344.280579	470.809082	229.567200	-353.307098	511.124634	317.049866	-400.803162	447.264954	99.165253	-371.521545	447.613770	122.359985	-459.434235	393.752686	67.857895	-415.840729	651.958740	91.609634	-492.320679	581.481995	50.510952	-391.195312	561.325012	62.237362	-504.567841	321.426666	803.241760	-689.895081	340.956604	717.081909	-690.112061	390.765228	726.996643	-709.945190	356.755524	633.885681	-677.602722	364.317139	520.286255	-654.506165	392.533112	489.606445	-547.477478	305.741241	409.919098	-666.548828	303.953552	323.291901	-657.608215	304.840210	238.373047	-639.650513	366.635559	322.647369	-655.525330	317.352203	104.830933	-620.067749	382.602844	116.339516	-558.711182	304.838196	64.549728	-560.235901	543.433228	96.891502	-692.444153	498.439636	65.732536	-617.321960	426.201141	57.279205	-707.109924	
501	2.5050	496.240265	1501.393921	-347.749512	306.873932	1482.349243	-688.407288	378.581085	1530.506470	-497.007111	509.772369	1459.721680	-566.135376	556.458557	1253.847046	-183.224182	715.904663	1058.197632	-72.314117	210.474960	1209.349487	-782.567139	216.548889	1002.033325	-951.751892	341.273773	1020.148987	-461.269257	368.438995	1089.561157	-679.078796	545.281982	1061.895630	-394.271240	420.798218	1025.658447	-681.551880	573.915710	1014.549744	-446.877869	383.648834	1050.669312	-423.903687	327.943176	1053.980591	-513.741516	516.806763	928.287476	-361.879547	337.341400	922.598572	-683.884705	538.023438	808.976013	-351.430664	543.606812	726.896057	-361.098145	536.955811	637.331482	-376.145874	581.452271	730.536621	-400.621857	506.486450	517.359863	-388.688354	446.198730	493.070740	-477.451416	491.777069	401.805847	-339.542725	486.234253	317.577271	-344.296509	470.806152	229.572449	-353.294769	511.140686	317.045227	-400.813110	447.277679	99.153992	-371.520203	447.614563	122.358803	-459.434753	393.738342	67.852966	-415.848450	651.956726	91.610992	-492.324036	581.483521	50.511944	-391.194061	561.326721	62.237175	-504.566345	321.428192	803.243530	-689.902649	340.949738	717.089783	-690.130737	390.769592	727.000793	-709.957397	356.761749	633.896240	-677.612061	364.317230	520.303101	-654.503784	392.547699	489.634613	-547.483582	305.747101	409.924011	-666.554626	303.951721	323.285278	-657.620911	304.850739	238.376297	-639.660400	366.644104	322.649445	-655.532776	317.358490	104.829002	-620.058289	382.630798	116.324211	-558.718750	304.840942	64.555931	-560.237061	543.444885	96.890633	-692.421936	498.439392	65.726707	-617.314392	426.212036	57.255360	-707.114380	
502	2.5100	496.256805	1501.399536	-347.750336	306.941803	1482.369873	-688.443848	378.603363	1530.540283	-496.970428	509.807587	1459.725830	-566.142578	556.485168	1253.851562	-183.258179	715.932312	1058.202637	-72.320396	210.510818	1209.395874	-782.567017	216.622406	1002.071350	-951.833130	341.287933	1020.138916	-461.289520	368.434204	1089.569580	-679.084106	545.280640	1061.910034	-394.294159	420.784943	1025.663818	-681.557129	573.919617	1014.549561	-446.894043	383.654297	1050.676392	-423.888458	327.954987	1053.967285	-513.748901	516.830627	928.288879	-361.888611	337.345612	922.594971	-683.880249	538.045776	808.983337	-351.458527	543.616150	726.908447	-361.092896	536.961792	637.332458	-376.140900	581.465515	730.548889	-400.639648	506.488953	517.351929	-388.688629	446.247620	493.075684	-477.466125	491.784607	401.810883	-339.557434	486.224548	317.574219	-344.279480	470.831268	229.579773	-353.304321	511.141602	317.042175	-400.827484	447.264923	99.165260	-371.521576	447.615356	122.357620	-459.435272	393.749176	67.859756	-415.857880	651.958374	91.607246	-492.323242	581.481689	50.511250	-391.194824	561.326782	62.237133	-504.566376	321.432312	803.242615	-689.907959	340.967529	717.078003	-690.125732	390.770294	727.005310	-709.967834	356.778992	633.892883	-677.619263	364.338989	520.293030	-654.524963	392.487091	489.649719	-547.428406	305.756134	409.924591	-666.564697	303.964844	323.291260	-657.625793	304.855652	238.379883	-639.667969	366.651611	322.652191	-655.538757	317.356934	104.825340	-620.055969	382.623413	116.334518	-558.712524	304.840607	64.556007	-560.237183	543.439514	96.890182	-692.414795	498.451508	65.722649	-617.320312	426.214172	57.255161	-707.133179	
503	2.5150	496.267487	1501.403198	-347.751251	306.971313	1482.388794	-688.441162	378.635803	1530.527344	-496.973877	509.822815	1459.746094	-566.145508	556.504211	1253.851318	-183.244110	715.929016	1058.191162	-72.313187	210.561325	1209.420776	-782.608398	216.701004	1002.114563	-951.917480	341.291687	1020.142700	-461.266602	368.441681	1089.576904	-679.091431	545.294006	1061.916504	-394.302490	420.797333	1025.660034	-681.566467	573.911682	1014.543945	-446.919922	383.663330	1050.686890	-423.897217	327.953583	1053.959229	-513.746399	516.844543	928.285217	-361.887787	337.351044	922.605469	-683.883545	538.073730	808.978699	-351.472168	543.642944	726.897400	-361.113800	536.971863	637.330078	-376.167297	581.470947	730.557068	-400.662140	506.487274	517.314880	-388.712799	446.180847	493.059753	-477.442047	491.802643	401.811523	-339.561737	486.234222	317.569580	-344.281281	470.846954	229.575073	-353.319000	511.132050	317.042847	-400.840851	447.285614	99.165771	-371.535461	447.614594	122.359108	-459.436462	393.757629	67.861809	-415.842133	651.955383	91.605515	-492.327362	581.495239	50.500790	-391.198975	561.325867	62.235302	-504.565582	321.440186	803.243713	-689.914551	340.971466	717.089233	-690.151917	390.777130	727.008423	-709.977478	356.786865	633.893982	-677.627197	364.357819	520.298889	-654.541870	392.532928	489.596802	-547.469788	305.758789	409.922211	-666.582214	303.969086	323.292328	-657.631714	304.857727	238.388245	-639.670715	366.657959	322.654388	-655.547119	317.347107	104.843590	-620.053589	382.631989	116.324699	-558.718018	304.838531	64.549675	-560.235840	543.447083	96.882339	-692.416077	498.453583	65.727821	-617.325012	426.207855	57.271976	-707.120667	
504	2.5200	496.279877	1501.409302	-347.751953	306.999115	1482.402954	-688.460632	378.664978	1530.521484	-496.992889	509.850922	1459.807129	-566.136719	556.504395	1253.866821	-183.244934	715.934387	1058.193481	-72.321640	210.616226	1209.441895	-782.692200	216.763535	1002.135559	-952.003174	341.304260	1020.161804	-461.280640	368.448364	1089.578003	-679.091431	545.311157	1061.900635	-394.332214	420.784058	1025.665527	-681.571716	573.916260	1014.579712	-446.929077	383.660065	1050.677246	-423.904633	327.948669	1053.987915	-513.749695	516.857910	928.281738	-361.889038	337.338684	922.614258	-683.892151	538.073730	808.978699	-351.472168	543.629822	726.904297	-361.110718	537.003052	637.332214	-376.169800	581.476074	730.551025	-400.672302	506.512482	517.329834	-388.737915	446.231689	493.065002	-477.467377	491.804321	401.810486	-339.582001	486.254456	317.578308	-344.296478	470.853210	229.574158	-353.319183	511.137695	317.016205	-400.827515	447.292908	99.151192	-371.528107	447.614624	122.359116	-459.436493	393.741730	67.861412	-415.846588	651.955322	91.605492	-492.327393	581.482361	50.513721	-391.206451	561.325867	62.235264	-504.565613	321.443970	803.244019	-689.920776	340.974670	717.094604	-690.149048	390.786133	727.012451	-709.986511	356.799622	633.895996	-677.643677	364.382416	520.301208	-654.545776	392.528229	489.667908	-547.479919	305.769989	409.931946	-666.587952	303.965942	323.298401	-657.658875	304.865479	238.389648	-639.679016	366.662750	322.657257	-655.552856	317.357208	104.823006	-620.054199	382.611664	116.315514	-558.726318	304.837219	64.560616	-560.231018	543.434326	96.890770	-692.422852	498.479248	65.720352	-617.323059	426.188446	57.261452	-707.130981	
505	2.5250	496.295593	1501.410522	-347.745453	307.075317	1482.411499	-688.507141	378.695465	1530.550293	-497.003754	509.883148	1459.771240	-566.123779	556.515198	1253.867798	-183.240402	715.936646	1058.197510	-72.311462	210.700577	1209.415527	-782.819214	216.822205	1002.177795	-952.091858	341.320740	1020.150146	-461.281219	368.455719	1089.574219	-679.093750	545.313293	1061.923340	-394.336090	420.787537	1025.659302	-681.571716	573.920715	1014.535889	-446.949890	383.659912	1050.689087	-423.907928	327.967743	1053.990723	-513.754944	516.873108	928.275330	-361.904053	337.346588	922.596802	-683.883911	538.083374	808.976746	-351.488739	543.628113	726.893433	-361.118927	536.985291	637.323120	-376.165009	581.480591	730.556213	-400.684662	506.489563	517.342102	-388.725098	446.227264	493.071960	-477.465607	491.803802	401.811310	-339.571014	486.232391	317.570282	-344.305054	470.853241	229.574142	-353.319183	511.135437	317.032104	-400.822968	447.295441	99.149597	-371.524780	447.613892	122.360306	-459.436066	393.738342	67.852974	-415.848450	651.951355	91.607765	-492.331787	581.438599	50.555099	-391.177063	561.326782	62.234993	-504.567627	321.448273	803.244751	-689.923401	340.977661	717.086487	-690.157166	390.795044	727.013184	-709.994507	356.818909	633.902771	-677.638000	364.368500	520.285645	-654.553650	392.566833	489.626312	-547.510498	305.770111	409.937195	-666.595276	303.979889	323.291626	-657.655762	304.870941	238.394501	-639.684875	366.674927	322.658478	-655.556946	317.359253	104.842216	-620.053284	382.630920	116.331306	-558.713989	304.840942	64.555939	-560.237061	543.440979	96.885056	-692.439819	498.451416	65.722267	-617.318298	426.215698	57.258312	-707.127441	
